<svg xmlns="http://www.w3.org/2000/svg" viewBox="0 0 200 200">
  <defs>
    <radialGradient id="fg1" cx="0%" cy="0%" r="70%">
      <stop offset="0%" stop-color="#FF4500" stop-opacity="0.9"/>
      <stop offset="60%" stop-color="#FF8C00" stop-opacity="0.5"/>
      <stop offset="100%" stop-color="#FF4500" stop-opacity="0"/>
    </radialGradient>
    <radialGradient id="fg2" cx="100%" cy="0%" r="70%">
      <stop offset="0%" stop-color="#FF4500" stop-opacity="0.9"/>
      <stop offset="60%" stop-color="#FF8C00" stop-opacity="0.5"/>
      <stop offset="100%" stop-color="#FF4500" stop-opacity="0"/>
    </radialGradient>
    <radialGradient id="fg3" cx="0%" cy="100%" r="70%">
      <stop offset="0%" stop-color="#FF6600" stop-opacity="0.85"/>
      <stop offset="100%" stop-color="#FF4500" stop-opacity="0"/>
    </radialGradient>
    <radialGradient id="fg4" cx="100%" cy="100%" r="70%">
      <stop offset="0%" stop-color="#FF6600" stop-opacity="0.85"/>
      <stop offset="100%" stop-color="#FF4500" stop-opacity="0"/>
    </radialGradient>
  </defs>
  <!-- Sol üst ateş -->
  <rect x="0" y="0" width="100" height="100" fill="url(#fg1)"/>
  <!-- Sağ üst ateş -->
  <rect x="100" y="0" width="100" height="100" fill="url(#fg2)"/>
  <!-- Sol alt ateş -->
  <rect x="0" y="100" width="100" height="100" fill="url(#fg3)"/>
  <!-- Sağ alt ateş -->
  <rect x="100" y="100" width="100" height="100" fill="url(#fg4)"/>
  <!-- Sol üst alev dilleri -->
  <g fill="#FF4500" opacity="0.85">
    <path d="M0 0 C5 20 15 10 12 35 C20 15 30 25 22 50 C35 20 45 38 30 60 C48 30 60 50 40 75"/>
    <path d="M0 0 C15 8 10 22 25 30 C10 40 20 55 8 70" fill="#FF6600" opacity="0.7"/>
  </g>
  <!-- Sağ üst alev -->
  <g fill="#FF4500" opacity="0.85" transform="scale(-1,1) translate(-200,0)">
    <path d="M0 0 C5 20 15 10 12 35 C20 15 30 25 22 50 C35 20 45 38 30 60 C48 30 60 50 40 75"/>
    <path d="M0 0 C15 8 10 22 25 30 C10 40 20 55 8 70" fill="#FF6600" opacity="0.7"/>
  </g>
  <!-- Sol alt alev -->
  <g fill="#FF6600" opacity="0.75" transform="scale(1,-1) translate(0,-200)">
    <path d="M0 0 C5 20 18 12 14 38 C25 18 35 28 26 54"/>
    <path d="M0 0 C18 6 12 24 28 32 C12 42 22 58 10 72" fill="#FF8C00" opacity="0.6"/>
  </g>
  <!-- Sağ alt alev -->
  <g fill="#FF6600" opacity="0.75" transform="scale(-1,-1) translate(-200,-200)">
    <path d="M0 0 C5 20 18 12 14 38 C25 18 35 28 26 54"/>
    <path d="M0 0 C18 6 12 24 28 32 C12 42 22 58 10 72" fill="#FF8C00" opacity="0.6"/>
  </g>
  <!-- Kıvılcımlar -->
  <g fill="#FFD700" opacity="0.9">
    <circle cx="15" cy="18" r="1.5"/>
    <circle cx="25" cy="10" r="1"/>
    <circle cx="8" cy="30" r="1"/>
    <circle cx="185" cy="18" r="1.5"/>
    <circle cx="175" cy="10" r="1"/>
    <circle cx="192" cy="30" r="1"/>
    <circle cx="15" cy="182" r="1.5"/>
    <circle cx="185" cy="182" r="1.5"/>
  </g>
  <!-- İnce daire çerçeve -->
  <circle cx="100" cy="100" r="70" fill="none" stroke="#FF4500" stroke-width="2" opacity="0.6"/>
  <circle cx="100" cy="100" r="67" fill="none" stroke="#FF8C00" stroke-width="1" opacity="0.4"/>
</svg>
