<svg xmlns="http://www.w3.org/2000/svg" viewBox="0 0 120 70">
  <defs>
    <linearGradient id="cg" x1="0%" y1="0%" x2="0%" y2="100%">
      <stop offset="0%" stop-color="#FFE566"/>
      <stop offset="100%" stop-color="#B8960C"/>
    </linearGradient>
    <linearGradient id="cg2" x1="0%" y1="0%" x2="0%" y2="100%">
      <stop offset="0%" stop-color="#FFD700"/>
      <stop offset="100%" stop-color="#8B6914"/>
    </linearGradient>
  </defs>
  <!-- Taç gövdesi -->
  <path d="M10 60 L10 30 L30 10 L60 38 L90 10 L110 30 L110 60 Z" fill="url(#cg)" stroke="#8B6914" stroke-width="1.5" stroke-linejoin="round"/>
  <!-- İç koyulaştırma -->
  <path d="M15 60 L15 33 L32 15 L60 40 L88 15 L105 33 L105 60 Z" fill="url(#cg2)" opacity="0.35"/>
  <!-- Üst ortadaki büyük taş -->
  <ellipse cx="60" cy="10" rx="6" ry="7" fill="#FF4444" stroke="#8B0000" stroke-width="1"/>
  <ellipse cx="58" cy="8" rx="2.5" ry="2" fill="#FF8888" opacity="0.7"/>
  <!-- Sol taş -->
  <ellipse cx="30" cy="12" rx="5" ry="6" fill="#4444FF" stroke="#000088" stroke-width="1"/>
  <ellipse cx="28" cy="10" rx="2" ry="1.5" fill="#8888FF" opacity="0.7"/>
  <!-- Sağ taş -->
  <ellipse cx="90" cy="12" rx="5" ry="6" fill="#4444FF" stroke="#000088" stroke-width="1"/>
  <ellipse cx="88" cy="10" rx="2" ry="1.5" fill="#8888FF" opacity="0.7"/>
  <!-- Alt süs çizgisi -->
  <rect x="10" y="52" width="100" height="8" rx="2" fill="#8B6914"/>
  <rect x="10" y="52" width="100" height="4" rx="2" fill="#FFD700" opacity="0.5"/>
  <!-- Küçük noktalar alt çizgide -->
  <g fill="#FFE566">
    <circle cx="25" cy="56" r="2.5"/>
    <circle cx="40" cy="56" r="2.5"/>
    <circle cx="60" cy="56" r="3"/>
    <circle cx="80" cy="56" r="2.5"/>
    <circle cx="95" cy="56" r="2.5"/>
  </g>
  <!-- Parlaklık -->
  <path d="M35 32 L38 26 L41 32" fill="none" stroke="#FFFACD" stroke-width="1" opacity="0.6"/>
  <path d="M79 32 L82 26 L85 32" fill="none" stroke="#FFFACD" stroke-width="1" opacity="0.6"/>
</svg>
